<svg width="1400" height="760" viewBox="0 0 1400 760" fill="none" xmlns="http://www.w3.org/2000/svg">
  <defs>
    <linearGradient id="hero-bg" x1="120" y1="80" x2="1260" y2="650" gradientUnits="userSpaceOnUse">
      <stop stop-color="#0B1F33"/>
      <stop offset="0.55" stop-color="#123A59"/>
      <stop offset="1" stop-color="#0F766E"/>
    </linearGradient>
    <linearGradient id="hero-accent" x1="0" y1="0" x2="1" y2="1">
      <stop stop-color="#F59E0B"/>
      <stop offset="1" stop-color="#14B8A6"/>
    </linearGradient>
    <linearGradient id="hero-glass" x1="0" y1="0" x2="1" y2="1">
      <stop stop-color="#FFFFFF" stop-opacity="0.16"/>
      <stop offset="1" stop-color="#FFFFFF" stop-opacity="0.08"/>
    </linearGradient>
  </defs>

  <rect width="1400" height="760" rx="40" fill="#F5EDE3"/>
  <rect x="32" y="32" width="1336" height="696" rx="34" fill="url(#hero-bg)"/>

  <circle cx="1138" cy="162" r="150" fill="#FFFFFF" fill-opacity="0.06"/>
  <circle cx="1172" cy="580" r="126" fill="#F59E0B" fill-opacity="0.12"/>
  <circle cx="968" cy="594" r="82" fill="#22D3EE" fill-opacity="0.16"/>

  <rect x="96" y="92" width="188" height="44" rx="22" fill="#FFFFFF" fill-opacity="0.1"/>
  <text x="131" y="120" fill="#7DD3FC" font-family="Segoe UI, Arial, sans-serif" font-size="18" font-weight="700" letter-spacing="2">YTECH PLATFORM</text>

  <text x="96" y="210" fill="#FFFFFF" font-family="Segoe UI, Arial, sans-serif" font-size="68" font-weight="700">
    <tspan x="96" y="210">Secure client</tspan>
    <tspan x="96" y="282">and admin flows</tspan>
  </text>

  <text x="96" y="356" fill="#D7E3EF" font-family="Segoe UI, Arial, sans-serif" font-size="26">
    <tspan x="96" y="356">Public website, client workspace, admin operations,</tspan>
    <tspan x="96" y="392">quotes, messaging, payments and hardened account access.</tspan>
  </text>

  <rect x="96" y="456" width="182" height="48" rx="24" fill="url(#hero-accent)"/>
  <text x="135" y="487" fill="#FFFFFF" font-family="Segoe UI, Arial, sans-serif" font-size="18" font-weight="700">React 18 Frontend</text>

  <rect x="294" y="456" width="164" height="48" rx="24" fill="#FFFFFF" fill-opacity="0.12"/>
  <text x="337" y="487" fill="#FFFFFF" font-family="Segoe UI, Arial, sans-serif" font-size="18" font-weight="700">Node.js API</text>

  <rect x="474" y="456" width="160" height="48" rx="24" fill="#FFFFFF" fill-opacity="0.12"/>
  <text x="513" y="487" fill="#FFFFFF" font-family="Segoe UI, Arial, sans-serif" font-size="18" font-weight="700">PostgreSQL</text>

  <rect x="650" y="456" width="168" height="48" rx="24" fill="#FFFFFF" fill-opacity="0.12"/>
  <text x="692" y="487" fill="#FFFFFF" font-family="Segoe UI, Arial, sans-serif" font-size="18" font-weight="700">OWASP Layers</text>

  <rect x="96" y="556" width="348" height="120" rx="28" fill="url(#hero-glass)" stroke="#FFFFFF" stroke-opacity="0.16"/>
  <text x="128" y="598" fill="#F8FAFC" font-family="Segoe UI, Arial, sans-serif" font-size="20" font-weight="700">Password management</text>
  <text x="128" y="632" fill="#D6E2F0" font-family="Segoe UI, Arial, sans-serif" font-size="18">
    <tspan x="128" y="632">Clients and admins can change passwords</tspan>
    <tspan x="128" y="658">from settings or through a secure email link.</tspan>
  </text>

  <rect x="864" y="100" width="364" height="154" rx="30" fill="url(#hero-glass)" stroke="#FFFFFF" stroke-opacity="0.16"/>
  <text x="900" y="144" fill="#F59E0B" font-family="Segoe UI, Arial, sans-serif" font-size="16" font-weight="700" letter-spacing="1">CLIENT SPACE</text>
  <text x="900" y="188" fill="#FFFFFF" font-family="Segoe UI, Arial, sans-serif" font-size="30" font-weight="700">
    <tspan x="900" y="188">Dashboard, follow-up</tspan>
    <tspan x="900" y="224">and project visibility</tspan>
  </text>
  <text x="900" y="246" fill="#D7E3EF" font-family="Segoe UI, Arial, sans-serif" font-size="18">
    <tspan x="900" y="246">Quotes, status updates, messages</tspan>
    <tspan x="900" y="272">and payment progress in one place.</tspan>
  </text>

  <rect x="820" y="286" width="408" height="164" rx="30" fill="url(#hero-glass)" stroke="#FFFFFF" stroke-opacity="0.16"/>
  <text x="856" y="330" fill="#22D3EE" font-family="Segoe UI, Arial, sans-serif" font-size="16" font-weight="700" letter-spacing="1">ADMIN OPS</text>
  <text x="856" y="374" fill="#FFFFFF" font-family="Segoe UI, Arial, sans-serif" font-size="30" font-weight="700">
    <tspan x="856" y="374">Moderation, approvals</tspan>
    <tspan x="856" y="410">and operational control</tspan>
  </text>
  <text x="856" y="432" fill="#D7E3EF" font-family="Segoe UI, Arial, sans-serif" font-size="18">
    <tspan x="856" y="432">Review quotes, answer messages,</tspan>
    <tspan x="856" y="458">verify users and monitor activity.</tspan>
  </text>

  <rect x="918" y="484" width="310" height="170" rx="30" fill="#F8FAFC"/>
  <text x="954" y="526" fill="#0B1F33" font-family="Segoe UI, Arial, sans-serif" font-size="16" font-weight="700" letter-spacing="1">SECURITY STACK</text>
  <text x="954" y="570" fill="#0B1F33" font-family="Segoe UI, Arial, sans-serif" font-size="26" font-weight="700">
    <tspan x="954" y="570">CSRF, CORS and</tspan>
    <tspan x="954" y="602">audit visibility</tspan>
  </text>
  <text x="954" y="628" fill="#475569" font-family="Segoe UI, Arial, sans-serif" font-size="18">
    <tspan x="954" y="628">Session hardening, token masking,</tspan>
    <tspan x="954" y="654">container refresh and CI security scans.</tspan>
  </text>
</svg>
