<svg width="1400" height="900" viewBox="0 0 1400 900" fill="none" xmlns="http://www.w3.org/2000/svg">
  <defs>
    <linearGradient id="sec-bg" x1="80" y1="60" x2="1300" y2="820" gradientUnits="userSpaceOnUse">
      <stop stop-color="#0F172A"/>
      <stop offset="1" stop-color="#123A59"/>
    </linearGradient>
    <linearGradient id="sec-accent" x1="0" y1="0" x2="1" y2="1">
      <stop stop-color="#22D3EE"/>
      <stop offset="1" stop-color="#F59E0B"/>
    </linearGradient>
  </defs>

  <rect width="1400" height="900" rx="40" fill="#F5EDE3"/>
  <rect x="32" y="32" width="1336" height="836" rx="34" fill="url(#sec-bg)"/>

  <text x="90" y="118" fill="#FFFFFF" font-family="Segoe UI, Arial, sans-serif" font-size="42" font-weight="700">Security and deployment posture</text>
  <text x="90" y="160" fill="#D6E2F0" font-family="Segoe UI, Arial, sans-serif" font-size="22">
    <tspan x="90" y="160">Designed for a public web server, a private database network</tspan>
    <tspan x="90" y="190">and layered account protection across the platform.</tspan>
  </text>

  <rect x="90" y="242" width="1220" height="236" rx="34" fill="#FFFFFF" fill-opacity="0.08" stroke="#FFFFFF" stroke-opacity="0.12"/>
  <text x="126" y="292" fill="#7DD3FC" font-family="Segoe UI, Arial, sans-serif" font-size="16" font-weight="700" letter-spacing="1">TARGET TOPOLOGY</text>

  <rect x="126" y="330" width="284" height="108" rx="24" fill="#FFFFFF" fill-opacity="0.1"/>
  <text x="156" y="370" fill="#F8FAFC" font-family="Segoe UI, Arial, sans-serif" font-size="22" font-weight="700">Public / bridge IP</text>
  <text x="156" y="402" fill="#D6E2F0" font-family="Segoe UI, Arial, sans-serif" font-size="18">
    <tspan x="156" y="402">Public entry point for users,</tspan>
    <tspan x="156" y="428">TLS and Nginx routing.</tspan>
  </text>

  <rect x="478" y="330" width="364" height="108" rx="24" fill="#FFFFFF" fill-opacity="0.1"/>
  <text x="510" y="370" fill="#F8FAFC" font-family="Segoe UI, Arial, sans-serif" font-size="22" font-weight="700">Ubuntu web/app server</text>
  <text x="510" y="402" fill="#D6E2F0" font-family="Segoe UI, Arial, sans-serif" font-size="18">
    <tspan x="510" y="402">Static frontend, Nginx and backend</tspan>
    <tspan x="510" y="428">kept local on 127.0.0.1:5001.</tspan>
  </text>

  <rect x="910" y="330" width="364" height="108" rx="24" fill="#FFFFFF" fill-opacity="0.1"/>
  <text x="942" y="370" fill="#F8FAFC" font-family="Segoe UI, Arial, sans-serif" font-size="22" font-weight="700">Private DB network</text>
  <text x="942" y="402" fill="#D6E2F0" font-family="Segoe UI, Arial, sans-serif" font-size="18">
    <tspan x="942" y="402">Fixed-IP PostgreSQL only reachable</tspan>
    <tspan x="942" y="428">from the private web-server side.</tspan>
  </text>

  <path d="M410 384H478" stroke="url(#sec-accent)" stroke-width="10" stroke-linecap="round"/>
  <path d="M842 384H910" stroke="url(#sec-accent)" stroke-width="10" stroke-linecap="round"/>
  <path d="M447 364L478 384L447 404" fill="none" stroke="#22D3EE" stroke-width="10" stroke-linecap="round" stroke-linejoin="round"/>
  <path d="M879 364L910 384L879 404" fill="none" stroke="#F59E0B" stroke-width="10" stroke-linecap="round" stroke-linejoin="round"/>

  <rect x="90" y="532" width="282" height="268" rx="30" fill="#FFFFFF"/>
  <text x="122" y="578" fill="#0B1F33" font-family="Segoe UI, Arial, sans-serif" font-size="15" font-weight="700" letter-spacing="1">ACCOUNT SECURITY</text>
  <text x="122" y="622" fill="#0B1F33" font-family="Segoe UI, Arial, sans-serif" font-size="28" font-weight="700">
    <tspan x="122" y="622">Settings based</tspan>
    <tspan x="122" y="656">password change</tspan>
  </text>
  <text x="122" y="694" fill="#475569" font-family="Segoe UI, Arial, sans-serif" font-size="18">
    <tspan x="122" y="694">Client and admin users can</tspan>
    <tspan x="122" y="720">update credentials from the</tspan>
    <tspan x="122" y="746">dedicated settings screen.</tspan>
  </text>

  <rect x="404" y="532" width="282" height="268" rx="30" fill="#ECFEFF"/>
  <text x="436" y="578" fill="#0F766E" font-family="Segoe UI, Arial, sans-serif" font-size="15" font-weight="700" letter-spacing="1">EMAIL FLOW</text>
  <text x="436" y="622" fill="#0B1F33" font-family="Segoe UI, Arial, sans-serif" font-size="28" font-weight="700">
    <tspan x="436" y="622">Reset links</tspan>
    <tspan x="436" y="656">and alerts</tspan>
  </text>
  <text x="436" y="694" fill="#475569" font-family="Segoe UI, Arial, sans-serif" font-size="18">
    <tspan x="436" y="694">Secure reset emails, account</tspan>
    <tspan x="436" y="720">notifications and prevention</tspan>
    <tspan x="436" y="746">of password reuse.</tspan>
  </text>

  <rect x="718" y="532" width="282" height="268" rx="30" fill="#FFF7ED"/>
  <text x="750" y="578" fill="#B45309" font-family="Segoe UI, Arial, sans-serif" font-size="15" font-weight="700" letter-spacing="1">REQUEST DEFENSE</text>
  <text x="750" y="622" fill="#0B1F33" font-family="Segoe UI, Arial, sans-serif" font-size="28" font-weight="700">
    <tspan x="750" y="622">CSRF, CORS</tspan>
    <tspan x="750" y="656">and input guards</tspan>
  </text>
  <text x="750" y="694" fill="#475569" font-family="Segoe UI, Arial, sans-serif" font-size="18">
    <tspan x="750" y="694">Validated payloads, origin</tspan>
    <tspan x="750" y="720">checks, rate limits and safer</tspan>
    <tspan x="750" y="746">request handling.</tspan>
  </text>

  <rect x="1032" y="532" width="278" height="268" rx="30" fill="#F8FAFC"/>
  <text x="1064" y="578" fill="#0B1F33" font-family="Segoe UI, Arial, sans-serif" font-size="15" font-weight="700" letter-spacing="1">OPS HARDENING</text>
  <text x="1064" y="622" fill="#0B1F33" font-family="Segoe UI, Arial, sans-serif" font-size="28" font-weight="700">
    <tspan x="1064" y="622">Audit logs</tspan>
    <tspan x="1064" y="656">and CI scans</tspan>
  </text>
  <text x="1064" y="694" fill="#475569" font-family="Segoe UI, Arial, sans-serif" font-size="18">
    <tspan x="1064" y="694">Token masking, Docker</tspan>
    <tspan x="1064" y="720">hardening and security checks</tspan>
    <tspan x="1064" y="746">with CodeQL, Semgrep, Trivy.</tspan>
  </text>
</svg>
